<svg version="1.1" xmlns="http://www.w3.org/2000/svg" xmlns:xlink="http://www.w3.org/1999/xlink" x="0px" y="0px"
	 viewBox="50 0 300 300" enable-background="new 50 0 300 300" xml:space="preserve">
<g id="Art_x2F_-Movie-2" transform="translate(-50.000000, 0.000000)">
	<g id="Group" transform="translate(50.000000, 0.000000)">
		<g id="Button-Copy">
			<rect id="Bounds" x="50" fill="#222222" width="300" height="300"/>
		</g>
	</g>
</g>
<path fill-rule="evenodd" clip-rule="evenodd" fill="#A0A0A0" d="M201.1,68.1c21.1,0,38.2,17.1,38.2,38c0,21-17.2,38-38.2,38
	c-21.1,0-38.3-17.1-38.3-38C162.9,85.2,180,68.1,201.1,68.1z M168.5,229c-21.2-4.3-37.6-14.3-39.4-17.2c0-32.8,10-52.5,30.4-61.5
	l8.8-2.8c9.4,6.2,20.7,9.8,32.8,9.8c10.8,0,20.9-3.1,29.6-8.1l8.1,1.6c21.1,7.1,28.6,35.9,30.9,48.6
	C241.2,217.5,208.8,226.9,168.5,229z"/>
</svg>
