<?xml version="1.0" encoding="utf-8"?>
<!-- Generator: Adobe Illustrator 18.1.0, SVG Export Plug-In . SVG Version: 6.00 Build 0)  -->
<svg version="1.1" id="Ebene_1" xmlns="http://www.w3.org/2000/svg" xmlns:xlink="http://www.w3.org/1999/xlink" x="0px" y="0px"
	 viewBox="210 0 480 480" enable-background="new 210 0 480 480" xml:space="preserve">
<g id="Art_x2F_-Movie-2" transform="translate(-50.000000, 0.000000)">
	<g id="Group" transform="translate(50.000000, 0.000000)">
		<g id="Button-Copy">
			<rect id="Bounds" x="210" fill="#222222" width="480" height="480"/>
		</g>
	</g>
</g>
<path opacity="0.2" fill="#FFFFFF" enable-background="new    " d="M449.6,340.8c-46.1,0-83.7-37.6-83.7-83.7s37.6-83.7,83.7-83.7
	s83.7,37.6,83.7,83.7S495.9,340.8,449.6,340.8z M449.6,200.4c-31.3,0-56.8,25.4-56.8,56.8s25.4,56.8,56.8,56.8
	c31.3,0,56.8-25.4,56.8-56.8S481,200.4,449.6,200.4z"/>
<path opacity="0.8" fill="#FFFFFF" enable-background="new    " d="M497.3,233.6c-13.3,0-24.1-10.8-24.1-24.1
	c0-13.3,10.8-24.1,24.1-24.1c13.3,0,24.1,10.8,24.1,24.1S510.6,233.6,497.3,233.6z"/>
<g>
	<path opacity="0.6" fill="#FFFFFF" enable-background="new    " d="M568.4,139.6h-52.7c-19.9-19.9-20.6-33.7-53-33.7h-26.2
		c-32.4,0-31,11.8-53,33.7h-52.7c-22.9,0-41.5,18.6-41.5,41.5v152c0,22.9,18.6,41.5,41.5,41.5h237.5c22.9,0,41.5-18.6,41.5-41.5
		v-152C609.9,158.2,591.3,139.6,568.4,139.6z M449.6,342.5c-47.1,0-85.4-38.3-85.4-85.4s38.3-85.4,85.4-85.4S535,210,535,257.1
		S496.7,342.5,449.6,342.5z"/>
	<path fill="#212121" enable-background="new    " d="M449.6,148.7c-59.8,0-108.4,48.6-108.4,108.4s48.6,108.4,108.4,108.4
		S558,316.9,558,257.1S509.4,148.7,449.6,148.7z M449.6,340.8c-46.1,0-83.7-37.6-83.7-83.7s37.6-83.7,83.7-83.7s83.7,37.6,83.7,83.7
		S495.9,340.8,449.6,340.8z"/>
</g>
<path opacity="0.1" fill="#FFFFFF" enable-background="new    " d="M449.6,322c-35.8,0-64.9-29.2-64.9-64.9s29.2-64.9,64.9-64.9
	s64.9,29.2,64.9,64.9S485.5,322,449.6,322z"/>
<path fill="#222222" d="M449.6,282.4c-14,0-25.3-11.4-25.3-25.3s11.4-25.3,25.3-25.3s25.3,11.4,25.3,25.3S463.6,282.4,449.6,282.4z"
	/>
<path opacity="0.9" fill="#FFFFFF" enable-background="new    " d="M468.3,249.3c-6,0-10.8-4.8-10.8-10.8s4.8-10.8,10.8-10.8
	s10.8,4.8,10.8,10.8C479.1,244.5,474.2,249.3,468.3,249.3z"/>
</svg>
