<?xml version="1.0" encoding="utf-8"?>
<!-- Generator: Adobe Illustrator 18.1.0, SVG Export Plug-In . SVG Version: 6.00 Build 0)  -->
<svg version="1.1" id="Ebene_1" xmlns="http://www.w3.org/2000/svg" xmlns:xlink="http://www.w3.org/1999/xlink" x="0px" y="0px"
	 viewBox="710 0 1000 1000" enable-background="new 710 0 1000 1000" xml:space="preserve">
<g id="Art_x2F_-Movie-2" transform="translate(-50.000000, 0.000000)">
	<g id="Group" transform="translate(50.000000, 0.000000)">
		<g id="Button-Copy">
			<rect id="Bounds" x="710" y="0" fill="#E9E9E9" width="1000" height="1000"/>
		</g>
	</g>
</g>
<path opacity="0.7" fill="#222222" enable-background="new    " d="M1209.1,691.7c-86,0-156.1-70.1-156.1-156.1
	s70.1-156.1,156.1-156.1c86,0,156.1,70.1,156.1,156.1S1295.4,691.7,1209.1,691.7z M1209.1,488.8c-25.9,0-47,21-47,47
	c0,26,21,47,47,47c25.9,0,47-21,47-47C1256.1,509.8,1235,488.8,1209.1,488.8z"/>
<g opacity="0.9">
	<path fill="#222222" enable-background="new    " d="M1456.7,290.8h-109.8c-41.5-41.5-42.9-70.2-110.4-70.2h-54.6
		c-67.5,0-64.6,24.6-110.4,70.2H961.7c-47.7,0-86.5,38.8-86.5,86.5V694c0,47.7,38.8,86.5,86.5,86.5h494.8
		c47.7,0,86.5-38.8,86.5-86.5V377.3C1543.1,329.6,1504.4,290.8,1456.7,290.8z M1209.2,731.6c-108.1,0-195.9-87.9-195.9-195.9
		s87.9-195.9,195.9-195.9s195.9,87.9,195.9,195.9S1317.2,731.6,1209.2,731.6z"/>
</g>
<path fill="#222222" d="M1209.2,607.8c-39.9,0-72.2-32.5-72.2-72.2c0-39.7,32.5-72.2,72.2-72.2s72.2,32.5,72.2,72.2
	S1249.1,607.8,1209.2,607.8z"/>
</svg>
