<?xml version="1.0" encoding="utf-8"?>
<!-- Generator: Adobe Illustrator 18.1.0, SVG Export Plug-In . SVG Version: 6.00 Build 0)  -->
<svg version="1.1" id="Ebene_1" xmlns="http://www.w3.org/2000/svg" xmlns:xlink="http://www.w3.org/1999/xlink" x="0px" y="0px"
	 viewBox="130 0 480 480" enable-background="new 130 0 480 480" xml:space="preserve">
<g id="Art_x2F_-Movie-2" transform="translate(-50.000000, 0.000000)">
	<g id="Group" transform="translate(50.000000, 0.000000)">
		<g id="Button-Copy">
			<rect id="Bounds" x="130" fill="#222222" width="480" height="480"/>
		</g>
	</g>
</g>
<g>
	<path opacity="0.5" fill="#FFFFFF" d="M488.4,139.6h-52.7c-19.9-19.9-20.6-33.7-53-33.7h-26.2c-32.4,0-31,11.8-53,33.7h-52.7
		c-22.9,0-41.5,18.6-41.5,41.5v152c0,22.9,18.6,41.5,41.5,41.5h237.5c22.9,0,41.5-18.6,41.5-41.5v-152
		C529.9,158.2,511.3,139.6,488.4,139.6z M369.6,342.5c-47.1,0-85.4-38.3-85.4-85.4c0-47.1,38.3-85.4,85.4-85.4
		c47.1,0,85.4,38.3,85.4,85.4C455,304.2,416.7,342.5,369.6,342.5z"/>
	<path fill="#FFFFFF" d="M369.6,160.8c-53.1,0-96.3,43.2-96.3,96.3s43.2,96.3,96.3,96.3s96.3-43.2,96.3-96.3
		S422.7,160.8,369.6,160.8z M369.6,331.5c-41,0-74.4-33.4-74.4-74.4s33.4-74.4,74.4-74.4s74.4,33.4,74.4,74.4
		S410.7,331.5,369.6,331.5z"/>
</g>
<path opacity="0.2" fill="#FFFFFF" d="M369.6,331.5c-41,0-74.4-33.4-74.4-74.4s33.4-74.4,74.4-74.4s74.4,33.4,74.4,74.4
	S410.7,331.5,369.6,331.5z M369.6,206.7c-27.8,0-50.5,22.6-50.5,50.5s22.6,50.5,50.5,50.5c27.8,0,50.5-22.6,50.5-50.5
	S397.5,206.7,369.6,206.7z"/>
<path opacity="0.2" fill="#FFFFFF" d="M369.6,314.8c-31.8,0-57.7-25.9-57.7-57.7s25.9-57.7,57.7-57.7s57.7,25.9,57.7,57.7
	S401.5,314.8,369.6,314.8z"/>
<path fill="#222222" d="M369.6,279.6c-12.4,0-22.5-10.1-22.5-22.5c0-12.4,10.1-22.5,22.5-22.5c12.4,0,22.5,10.1,22.5,22.5
	C392.1,269.5,382,279.6,369.6,279.6z"/>
<path opacity="0.9" fill="#FFFFFF" d="M412.9,235.3c-11.8,0-21.4-9.6-21.4-21.4c0-11.8,9.6-21.4,21.4-21.4s21.4,9.6,21.4,21.4
	C434.3,225.7,424.7,235.3,412.9,235.3z"/>
<path opacity="0.9" fill="#FFFFFF" d="M383.2,253.2c-5.3,0-9.6-4.3-9.6-9.6c0-5.3,4.3-9.6,9.6-9.6s9.6,4.3,9.6,9.6
	C392.8,248.9,388.5,253.2,383.2,253.2z"/>
</svg>
