<?xml version="1.0" encoding="utf-8"?>
<!-- Generator: Adobe Illustrator 18.1.0, SVG Export Plug-In . SVG Version: 6.00 Build 0)  -->
<svg version="1.1" id="Ebene_1" xmlns="http://www.w3.org/2000/svg" xmlns:xlink="http://www.w3.org/1999/xlink" x="0px" y="0px"
	 viewBox="580 0 1000 1000" enable-background="new 580 0 1000 1000" xml:space="preserve">
<g id="Art_x2F_-Movie-2" transform="translate(-50.000000, 0.000000)">
	<g id="Group" transform="translate(50.000000, 0.000000)">
		<g id="Button-Copy">
			<rect id="Bounds" x="580" y="0" fill="#E9E9E9" width="1000" height="1000"/>
		</g>
	</g>
</g>
<g>
	<path fill="#222222" d="M1282.7,280.8v48.3c0,7.5-3.8,11.2-11.2,11.2h-149.2c-2.7,0-4.2,1.5-4.2,4.2v405c0,7.5-3.8,11.2-11.2,11.2
		h-59c-7.5,0-11.2-3.8-11.2-11.2V344.8c0-2.7-1.5-4.2-4.2-4.2H888.3c-7.5,0-11.2-3.8-11.2-11.2V281c0-7.5,3.8-11.2,11.2-11.2h383.3
		C1279,269.6,1282.7,273.3,1282.7,280.8z"/>
</g>
</svg>
