<?xml version="1.0" encoding="utf-8"?>
<!-- Generator: Adobe Illustrator 18.1.0, SVG Export Plug-In . SVG Version: 6.00 Build 0)  -->
<svg version="1.1" id="Ebene_1" xmlns="http://www.w3.org/2000/svg" xmlns:xlink="http://www.w3.org/1999/xlink" x="0px" y="0px"
	 viewBox="80 0 480 480" enable-background="new 80 0 480 480" xml:space="preserve">
<g id="Art_x2F_-Movie-2" transform="translate(-50.000000, 0.000000)">
	<g id="Group" transform="translate(50.000000, 0.000000)">
		<g id="Button-Copy">
			<rect id="Bounds" x="80" fill="#222222" width="480" height="480"/>
		</g>
	</g>
</g>
<g>
	<path fill="#DDDDDD" d="M417.3,134.8V158c0,3.6-1.8,5.4-5.4,5.4h-71.6c-1.3,0-2,0.7-2,2v194.4c0,3.6-1.8,5.4-5.4,5.4h-28.3
		c-3.6,0-5.4-1.8-5.4-5.4V165.5c0-1.3-0.7-2-2-2H228c-3.6,0-5.4-1.8-5.4-5.4v-23.2c0-3.6,1.8-5.4,5.4-5.4H412
		C415.5,129.4,417.3,131.2,417.3,134.8z"/>
</g>
</svg>
