<?xml version="1.0" encoding="utf-8"?>
<!-- Generator: Adobe Illustrator 18.1.0, SVG Export Plug-In . SVG Version: 6.00 Build 0)  -->
<svg version="1.1" id="Ebene_1" xmlns="http://www.w3.org/2000/svg" xmlns:xlink="http://www.w3.org/1999/xlink" x="0px" y="0px"
	 viewBox="-163.1 399.9 583.8 113.8" enable-background="new -163.1 399.9 583.8 113.8" xml:space="preserve">
<g>
	<path fill="#FFFFFF" d="M-149.5,403.9h6.3c4.1,0,7.3,0.9,9.6,2.6c2.4,1.7,3.6,4.4,3.6,7.7c0,5-2.4,8.3-7.2,9.9
		c5.7,1.6,8.5,4.8,8.5,9.6c0,8.2-5.2,12.4-15.6,12.4h-18.9v-5.2c1-0.4,2.5-0.9,4.5-1.5V411l-4.5-1.8v-4.9L-149.5,403.9z M-149.5,411
		v10.2h3.5c4.5,0,6.7-1.8,6.7-5.6c0-1.5-0.5-2.7-1.5-3.5c-1-0.8-2.1-1.2-3.7-1.2L-149.5,411L-149.5,411z M-146,427.4h-3.5v11.7h4.9
		c2,0,3.7-0.5,4.7-1.5c1.1-1,1.6-2.2,1.6-4c0-2.1-0.7-3.8-1.9-4.7C-141.3,427.9-143.3,427.4-146,427.4z"/>
	<path fill="#FFFFFF" d="M-124,414.3l13.6-0.5v26l4.2,1.5v4.7h-17.8v-4.7l4.7-1.5v-19.6l-4.7-1.2L-124,414.3L-124,414.3z
		 M-120.3,403.9c0-1.6,0.5-2.9,1.5-4c1.1-1,2.2-1.5,3.6-1.5c3.4,0,5,1.8,5,5.4c0,1.6-0.5,3-1.5,4c-1.1,1-2.2,1.5-3.5,1.5
		c-1.6,0-2.9-0.5-3.8-1.5C-120,407-120.3,405.7-120.3,403.9z"/>
	<path fill="#FFFFFF" d="M-103.2,400.1l13.8-0.5v40.1l5.7,1.5v4.7h-19.6v-4.6l4.7-1.5v-33.7l-4.7-1.2V400.1z"/>
	<path fill="#FFFFFF" d="M-46.9,445.6l-12.6,0.4l-0.6-3.2c-2.5,2.5-5.5,3.8-9,3.8c-4.1,0-7.2-1.4-9.2-4.2s-3.1-6.7-3.1-11.8
		c0-5.7,1.5-10,4.3-13.1c2.8-3,7.1-4.5,12.7-4.5c1.4,0,2.6,0.2,3.9,0.6v-7.6l-4.7-1.2V400l13.6-0.5v40l4.7,1.2L-46.9,445.6
		L-46.9,445.6z M-60.5,436.2v-15.3c-1-0.6-2.5-0.9-4.6-0.9c-4.5,0-6.9,3.4-6.9,10.2c0,6.3,1.9,9.5,5.7,9.5c1.2,0,2.1-0.3,3.1-0.9
		c1-0.6,1.6-1.2,2-1.7L-60.5,436.2z"/>
	<path fill="#FFFFFF" d="M-40.5,435.9v-15.9l-4.4-1.1v-4.7l13.3-0.5v20.5c0,1.6,0.3,2.8,0.8,3.6c0.5,0.8,1.4,1.2,2.6,1.2
		c1.2,0,2.2-0.3,3.5-0.8c1.2-0.6,2.1-1.1,2.7-1.6l0.9-0.9v-15.7l-4.5-1.1v-4.7l13.3-0.5v26l4.5,1.2v4.6L-20,446l-0.6-4.2
		c-0.1,0.1-0.3,0.3-0.6,0.5c-0.3,0.2-0.8,0.6-1.5,1.2s-1.5,1.1-2.3,1.5s-1.7,0.8-2.9,1.2c-1.2,0.3-2.2,0.5-3.3,0.5
		c-3,0-5.3-1-6.9-2.8C-39.7,442-40.5,439.3-40.5,435.9z"/>
	<path fill="#FFFFFF" d="M-4.5,414.3l12.4-0.5l0.4,4.2c0.5-0.4,1.1-0.8,1.7-1.3c0.7-0.5,2-1.2,4-2c1.9-0.9,3.7-1.3,5.3-1.3
		c2.9,0,5,1,6.6,2.8c1.5,1.8,2.3,4.5,2.3,7.8v15.9c0.5,0.2,1.3,0.4,2.2,0.8c1,0.4,1.6,0.6,1.9,0.7v4.7H16.2v-4.8l3.2-1.5v-14.5
		c0-1.4-0.4-2.5-1.1-3.5s-1.7-1.4-3-1.4c-1.2,0-2.2,0.3-3.3,0.9s-1.8,1.2-2.3,1.7L9,423.9v15.9l3.1,1.5v4.7H-4.5v-4.7l4.6-1.5v-19.6
		l-4.6-1.3V414.3z"/>
	<path fill="#FFFFFF" d="M36.3,452.7c0-1.5,0.5-2.9,1.5-4.1s2-2,3.1-2.4l1.6-0.7c-0.3,0-0.6-0.1-1.1-0.2c-0.4-0.1-1-0.5-1.5-1.2
		c-0.7-0.7-1-1.5-1-2.5c0-1.3,1.1-3.5,3.1-6.8c-3.1-2-4.6-5.1-4.6-9.3c0-4,1.4-7,4-9.1c2.6-2.1,6.1-3.2,10.4-3.2
		c2.7,0,5,0.5,7.1,1.5l10.3-0.2v4.7l-4.7,0.7c0,0,0.1,0.3,0.3,0.8c0.2,0.5,0.4,1.1,0.5,1.7s0.2,1.4,0.2,2.1c0,4.2-1.3,7.3-3.9,9.3
		c-2.6,2-6.1,3-10.5,3c-0.5,0-1,0-1.5-0.1c-0.5,0-0.9-0.1-1.2-0.2c-0.3-0.1-0.5-0.1-0.5-0.1l-0.2,4h8.8c3.9,0,6.8,0.8,8.9,2.4
		c2,1.5,3.1,3.9,3.1,6.9c0,3.4-1.5,6.2-4.3,8.2c-2.8,2-7,3.1-12.6,3.1c-5,0-8.9-0.7-11.5-1.9C37.6,458.1,36.3,455.8,36.3,452.7z
		 M54.2,447.3h-6.3c-0.2,0.1-0.5,0.2-0.8,0.4c-0.3,0.2-0.8,0.7-1.3,1.4c-0.6,0.7-0.8,1.4-0.8,2.1c0,1.5,0.6,2.4,1.7,2.9
		c1.2,0.5,3.1,0.7,5.7,0.7c2.7,0,4.6-0.3,5.9-1c1.2-0.7,1.8-1.6,1.8-3.1c0-1.3-0.5-2.1-1.5-2.7C57.8,447.6,56.3,447.3,54.2,447.3z
		 M51.6,419.3c-3.4,0-5.1,1.9-5.1,5.7c0,4,1.5,6,4.7,6c1.8,0,3.1-0.5,4-1.5c0.8-1,1.2-2.5,1.2-4.5C56.4,421.2,54.8,419.3,51.6,419.3
		z"/>
	<path fill="#FFFFFF" d="M78.6,435.7l0.5,4.2c1.4,0.4,3,0.6,4.9,0.6c3.2,0,4.7-1.1,4.7-3.2c0-0.9-0.6-1.7-1.6-2.3
		c-1.1-0.7-2.4-1.3-4-1.7c-1.5-0.5-3.1-1.1-4.6-1.7s-2.9-1.6-4-3c-1.1-1.4-1.6-3-1.6-4.9c0-3.5,1.2-6.1,3.5-7.7
		c2.4-1.7,5.3-2.5,8.9-2.5c1.5,0,3.3,0.2,5.2,0.5c1.8,0.3,3.3,0.6,4.4,0.9l1.5,0.5c-0.1,2-0.2,5-0.2,9H91l-0.9-3.9
		c-1.1-0.4-2.3-0.6-4-0.6c-1.3,0-2.2,0.3-2.9,0.8s-1.1,1.3-1.1,2.2c0,0.9,0.6,1.7,1.6,2.3c1.1,0.7,2.4,1.2,4,1.6
		c1.5,0.5,3.1,1.1,4.6,1.6s2.9,1.5,4,2.9s1.6,2.9,1.6,4.8c0,3.4-1.3,6-3.8,7.9c-2.5,1.9-5.8,2.8-10.1,2.8c-1.6,0-3.4-0.1-5.2-0.3
		c-1.8-0.2-3.3-0.4-4.3-0.6l-1.5-0.4v-9.8C73.2,435.7,78.6,435.7,78.6,435.7z"/>
	<path fill="#FFFFFF" d="M102.6,452.7c0-1.5,0.5-2.9,1.5-4.1s2-2,3.1-2.4l1.6-0.7c-0.3,0-0.6-0.1-1.1-0.2c-0.4-0.1-1-0.5-1.5-1.2
		c-0.7-0.7-1-1.5-1-2.5c0-1.3,1.1-3.5,3.1-6.8c-3.1-2-4.6-5.1-4.6-9.3c0-4,1.4-7,4-9.1c2.6-2.1,6.1-3.2,10.4-3.2
		c2.7,0,5,0.5,7.1,1.5l10.3-0.2v4.7l-4.9,0.9c0,0,0.1,0.3,0.3,0.8s0.4,1.1,0.5,1.7s0.2,1.4,0.2,2.1c0,4.2-1.3,7.3-3.9,9.3
		c-2.6,2-6.1,3-10.5,3c-0.5,0-1,0-1.5-0.1c-0.5,0-0.9-0.1-1.2-0.2c-0.3-0.1-0.5-0.1-0.5-0.1l-0.2,4h8.9c3.9,0,6.8,0.8,8.9,2.4
		c2,1.5,3.1,3.9,3.1,6.9c0,3.4-1.5,6.2-4.3,8.2c-2.8,2-7,3.1-12.6,3.1c-5,0-8.9-0.7-11.5-1.9C103.8,458.1,102.6,455.8,102.6,452.7z
		 M120.4,447.3h-6.3c-0.2,0.1-0.5,0.2-0.8,0.4c-0.3,0.2-0.8,0.7-1.3,1.4c-0.5,0.7-0.8,1.4-0.8,2.1c0,1.5,0.6,2.4,1.7,2.9
		c1.2,0.5,3.1,0.7,5.7,0.7c2.7,0,4.6-0.3,5.9-1c1.2-0.7,1.8-1.6,1.8-3.1c0-1.3-0.5-2.1-1.5-2.7C124,447.6,122.5,447.3,120.4,447.3z
		 M117.8,419.3c-3.4,0-5.1,1.9-5.1,5.7c0,4,1.5,6,4.7,6c1.8,0,3.1-0.5,4-1.5c0.8-1,1.2-2.5,1.2-4.5
		C122.6,421.2,121,419.3,117.8,419.3z"/>
	<path fill="#FFFFFF" d="M168.2,431.7l-19.8,0.2c0.2,2.5,0.9,4.4,2.2,5.7c1.3,1.4,3,2,5,2c1.5,0,3.1-0.2,4.7-0.7
		c1.6-0.5,3-1,3.9-1.5l1.5-0.7l2.6,4.7c-0.5,0.4-1.1,0.8-1.8,1.4c-0.8,0.6-2.4,1.4-4.7,2.2c-2.4,1-4.7,1.5-7,1.5
		c-5,0-8.9-1.5-11.6-4.3c-2.7-2.8-4-6.8-4-11.9c0-5.3,1.5-9.5,4.3-12.7c2.8-3.1,6.8-4.7,11.7-4.7c4.4,0,7.7,1.3,10.2,3.8
		c2.3,2.5,3.5,5.9,3.5,10.3L168.2,431.7z M154.4,420.2c-1.6,0-3,0.6-4,1.6c-1.1,1.2-1.6,2.6-1.8,4.5h10.7
		C159.2,422.2,157.5,420.2,154.4,420.2z"/>
	<path fill="#FFFFFF" d="M178.2,435.7l0.5,4.2c1.4,0.4,3,0.6,4.9,0.6c3.2,0,4.7-1.1,4.7-3.2c0-0.9-0.6-1.7-1.6-2.3
		c-1.1-0.7-2.4-1.3-4-1.7c-1.5-0.5-3.1-1.1-4.6-1.7s-2.9-1.6-4-3c-1.1-1.4-1.6-3-1.6-4.9c0-3.5,1.2-6.1,3.5-7.7
		c2.3-1.6,5.3-2.5,8.8-2.5c1.5,0,3.3,0.2,5.2,0.5c1.8,0.3,3.3,0.6,4.4,0.9l1.5,0.5c-0.1,2-0.2,5-0.2,9h-5.2l-0.9-3.9
		c-1.1-0.4-2.3-0.6-4-0.6c-1.3,0-2.2,0.3-2.9,0.8s-1.1,1.3-1.1,2.2c0,0.9,0.6,1.7,1.6,2.3c1.1,0.7,2.4,1.2,4,1.6
		c1.5,0.5,3.1,1.1,4.6,1.6c1.5,0.6,2.9,1.5,4,2.9c1.1,1.4,1.6,2.9,1.6,4.8c0,3.4-1.3,6-3.8,7.9c-2.5,1.9-5.8,2.8-10.1,2.8
		c-1.6,0-3.4-0.1-5.2-0.3c-1.8-0.2-3.3-0.4-4.3-0.6l-1.5-0.4v-9.8H178.2z"/>
	<path fill="#FFFFFF" d="M226.9,436.5l3,5.1c-3.9,3.4-8.1,5.1-12.9,5.1c-4.9,0-8.7-1.5-11.4-4.4s-4.1-6.9-4.1-12
		c0-5.3,1.5-9.6,4.4-12.7c2.9-3.1,7-4.6,12.1-4.6c1.5,0,3.2,0.2,4.9,0.5c1.7,0.4,3.1,0.7,4.2,1.1l1.5,0.6l-0.3,9.8h-5.4l-0.9-4.4
		c-1.2-0.3-2.5-0.5-4.2-0.5c-2.2,0-4,0.8-5.2,2.2c-1.3,1.5-1.8,3.8-1.8,6.8c0,3.4,0.6,6,1.8,7.7c1.3,1.8,3.1,2.7,5.6,2.7
		c0.8,0,1.5-0.1,2.2-0.2c0.7-0.1,1.5-0.4,2.1-0.6c0.7-0.3,1.2-0.5,1.5-0.7c0.4-0.2,0.9-0.5,1.5-0.9
		C226.3,436.8,226.7,436.6,226.9,436.5z"/>
	<path fill="#FFFFFF" d="M231.9,400.1l13.6-0.5v17.5c3.3-2.7,6.6-4.1,10.1-4.1c3,0,5.3,1,6.9,2.8c1.5,1.9,2.4,4.5,2.4,7.9v15.9
		l4.2,1.5v4.7h-16.2v-4.6l3.1-1.5v-14.5c0-3.2-1.4-4.7-4-4.7c-1,0-2,0.3-3.1,0.8c-1.1,0.6-1.9,1.1-2.5,1.5l-0.9,0.8v16.1l3.2,1.5
		v4.7h-16.7v-4.6l4.7-1.5v-33.7l-4.7-1.2L231.9,400.1L231.9,400.1z"/>
	<path fill="#FFFFFF" d="M272.4,414.3l13.6-0.5v26l4.2,1.5v4.7h-17.8v-4.7l4.7-1.5v-19.6l-4.7-1.2L272.4,414.3L272.4,414.3z
		 M276.1,403.9c0-1.6,0.5-2.9,1.5-4c1.1-1,2.2-1.5,3.6-1.5c3.4,0,5,1.8,5,5.4c0,1.6-0.5,3-1.5,4c-1.1,1-2.2,1.5-3.5,1.5
		c-1.6,0-2.9-0.5-3.8-1.5C276.5,407,276.1,405.7,276.1,403.9z"/>
	<path fill="#FFFFFF" d="M319,436.5l3,5.1c-3.9,3.4-8.1,5.1-12.9,5.1c-4.9,0-8.7-1.5-11.4-4.4s-4.1-6.9-4.1-12
		c0-5.3,1.5-9.6,4.4-12.7c2.9-3.1,7-4.6,12.1-4.6c1.5,0,3.2,0.2,4.9,0.5c1.7,0.4,3.1,0.7,4.2,1.1l1.5,0.6l-0.3,9.8h-5.4l-0.9-4.4
		c-1.2-0.3-2.5-0.5-4.2-0.5c-2.2,0-4,0.8-5.2,2.2s-1.8,3.8-1.8,6.8c0,3.4,0.6,6,1.8,7.7c1.3,1.8,3.1,2.7,5.6,2.7
		c0.8,0,1.5-0.1,2.2-0.2c0.7-0.1,1.5-0.4,2.1-0.6c0.7-0.2,1.2-0.5,1.5-0.7c0.4-0.2,0.9-0.5,1.5-0.9
		C318.5,436.8,318.9,436.6,319,436.5z"/>
	<path fill="#FFFFFF" d="M324.1,400.1l13.6-0.5v17.5c3.3-2.7,6.6-4.1,10.1-4.1c3,0,5.3,1,6.9,2.8c1.5,1.9,2.4,4.5,2.4,7.9v15.9
		l4.2,1.5v4.7H345v-4.6l3.1-1.5v-14.5c0-3.2-1.4-4.7-4-4.7c-1,0-2,0.3-3.1,0.8c-1.1,0.6-1.9,1.1-2.5,1.5l-0.9,0.8v16.1l3.2,1.5v4.7
		h-16.7v-4.6l4.7-1.5v-33.7l-4.7-1.2L324.1,400.1L324.1,400.1z"/>
	<path fill="#FFFFFF" d="M377.9,446.7c-3.3,0-5.6-1.1-6.9-3.2c-1.3-2.1-1.8-5.9-1.8-11.1v-11.2h-5.6v-5.7l5.6-0.8v-8.2l8.8-1.6v9.9
		h8.4v6.5h-8.4v13.6c0,2,0.2,3.4,0.7,4.2c0.5,0.8,1.3,1.2,2.5,1.2c1.5,0,3-0.5,4.7-1.4l2.1,4.4C384.4,445.4,381,446.7,377.9,446.7z"
		/>
	<path fill="#FFFFFF" d="M420.1,431.7l-19.8,0.2c0.2,2.5,0.9,4.4,2.2,5.7c1.3,1.4,3,2,5,2c1.5,0,3.1-0.2,4.7-0.7
		c1.6-0.5,3-1,3.9-1.5l1.5-0.7l2.6,4.7c-0.5,0.4-1.1,0.8-1.8,1.4c-0.8,0.6-2.4,1.4-4.7,2.2c-2.4,1-4.7,1.5-7,1.5
		c-5,0-8.9-1.5-11.6-4.3c-2.7-2.8-4-6.8-4-11.9c0-5.3,1.5-9.5,4.3-12.7c2.8-3.1,6.8-4.7,11.7-4.7c4.4,0,7.7,1.3,10.2,3.8
		c2.3,2.5,3.5,5.9,3.5,10.3L420.1,431.7z M406.2,420.2c-1.6,0-3,0.6-4,1.6c-1.1,1.2-1.6,2.6-1.8,4.5h10.7
		C411.1,422.2,409.5,420.2,406.2,420.2z"/>
</g>
<g>
	<path fill="#FFFFFF" d="M193.1,501.5l1.2,6.3c0.7,0.4,1.7,0.8,2.9,1.1c1.3,0.3,2.4,0.5,3.7,0.5s2.3-0.2,3.5-0.5
		c1.2-0.3,2.1-0.8,2.9-1.3c0.9-0.6,1.5-1.3,2-2c0.5-0.8,0.8-1.6,0.8-2.7c0-1.2-0.3-2.1-1-2.9s-1.5-1.5-2.5-2
		c-1.1-0.6-2.1-1.1-3.5-1.5c-1.3-0.5-2.6-0.9-3.9-1.4c-1.4-0.6-2.7-1.2-4.1-1.8c-1.3-0.6-2.4-1.4-3.5-2.3c-1.1-0.9-1.8-2-2.4-3.3
		s-0.9-2.8-0.9-4.7c0-2,0.4-3.8,1.2-5.2s1.8-2.7,3.1-3.7c1.3-1,2.8-1.6,4.5-2.1c1.7-0.5,3.6-0.7,5.5-0.7c0.9,0,1.8,0.1,2.8,0.2
		c1,0.1,1.9,0.3,2.9,0.5c1,0.2,1.8,0.4,2.7,0.6c0.9,0.2,1.5,0.4,2.1,0.6l1.9,0.6l-0.3,10.2H211l-2-6.4c-1.2-0.4-2.2-0.6-3.3-0.8
		c-1.1-0.2-2.2-0.2-3.4-0.2c-1.2,0-2.2,0.2-3.1,0.5c-1,0.3-1.7,0.7-2.4,1.3c-0.7,0.5-1.2,1.1-1.5,1.7c-0.4,0.7-0.6,1.3-0.6,1.9
		c0,1.6,0.6,3,1.6,4c1.1,1,2.4,1.7,4,2.4c1.5,0.7,3.3,1.4,5.2,1.9c1.8,0.6,3.6,1.4,5.1,2.2c1.5,0.9,2.9,2,4,3.5
		c1.1,1.5,1.5,3.3,1.5,5.6c0,2-0.4,3.9-1.2,5.5c-0.8,1.5-1.9,2.9-3.3,4.1c-1.4,1.1-3.1,1.9-4.9,2.5s-4,0.9-6.2,0.9
		c-0.9,0-1.8-0.1-2.8-0.2c-1.1-0.1-2-0.3-3-0.5c-1-0.2-1.8-0.4-2.7-0.6c-0.9-0.2-1.5-0.4-2.1-0.6l-1.6-0.6v-10.5L193.1,501.5
		L193.1,501.5z"/>
	<path fill="#FFFFFF" d="M247.8,491.9h-3.9l-0.9-5.1c-1.5-0.4-3.4-0.6-5.4-0.6c-2.9,0-5.1,1-6.7,2.7c-1.5,1.8-2.3,4.6-2.3,8.5
		c0,3.9,0.8,6.9,2.4,8.9c1.6,2,3.9,3.1,6.9,3.1c0.9,0,1.6-0.1,2.5-0.2c0.8-0.2,1.5-0.4,2.3-0.6c0.8-0.3,1.5-0.6,2-0.9s1.1-0.7,1.5-1
		l1.1-0.9l2.1,3.6l-0.7,0.6c-0.5,0.4-1.2,0.9-1.9,1.4c-0.9,0.5-1.7,1-2.8,1.4c-1.1,0.4-2.1,0.8-3.2,1.1c-1.2,0.3-2.2,0.5-3.3,0.5
		c-4.8,0-8.6-1.5-11.1-4.4c-2.5-2.9-3.9-6.9-3.9-11.9c0-2.5,0.4-4.7,1.1-6.8c0.8-2,1.7-3.8,3.1-5.2s3-2.6,4.9-3.4s4.1-1.3,6.4-1.3
		c0.8,0,1.6,0.1,2.4,0.2c0.9,0.1,1.6,0.3,2.4,0.4c0.8,0.2,1.5,0.4,2.2,0.6c0.7,0.2,1.3,0.4,1.7,0.6l1.4,0.6L247.8,491.9z"/>
	<path fill="#FFFFFF" d="M263.1,467.7v18.1c3.4-2.9,6.8-4.4,10.2-4.4c3.4,0,5.9,1,7.5,2.8c1.5,1.9,2.4,4.5,2.4,7.9v16.7l4.5,1.5v3.3
		h-14.3v-3.3l3.9-1.5v-16.3c0-2.1-0.4-3.8-1.2-4.7c-0.8-1.1-2-1.5-3.8-1.5c-0.9,0-1.6,0.1-2.4,0.3c-0.8,0.2-1.5,0.5-2.2,0.9
		c-0.7,0.4-1.4,0.8-1.9,1.2c-0.6,0.4-1.1,0.9-1.4,1.3l-1.1,1.2v17.6l3.9,1.5v3.3h-15v-3.3l5.1-1.5v-36.5l-5.1-1.2v-3.3L263.1,467.7z
		"/>
	<path fill="#FFFFFF" d="M303.1,482v3.6l-4.5,0.6l5.1,22.2l7.8-26l5.7-0.9l7.5,26.9l4.7-21.9l-4.2-0.9v-3.3l13.5-0.3v3.6l-3.5,0.6
		l-7.3,27.6h-6.9l-5.7-18.6l-1.5-5.7l-1.3,5.7l-5.7,18.6h-6.9l-7.5-27.2l-3-0.9v-3.3L303.1,482z"/>
	<path fill="#FFFFFF" d="M368.4,498.7l-20.6,0.1c0,3.3,0.8,5.9,2.3,7.8c1.5,1.9,3.7,2.9,6.3,2.9c0.9,0,1.7-0.1,2.6-0.2
		c0.9-0.2,1.7-0.4,2.5-0.6c0.8-0.2,1.5-0.5,2.1-0.8c0.7-0.3,1.2-0.6,1.6-0.9l1.2-0.8l2.1,3.1c-1.4,1.1-2.6,1.9-3.8,2.5
		c-1.2,0.6-2.5,1.2-4,1.6c-1.5,0.5-3.2,0.8-5,0.8c-4.7,0-8.3-1.5-10.7-4.3c-2.4-2.8-3.7-6.8-3.7-11.7c0-2.5,0.4-4.7,1.1-6.9
		c0.7-2.1,1.7-3.9,3-5.3s2.8-2.7,4.6-3.5c1.8-0.9,3.8-1.3,5.9-1.3c8.4,0,12.6,4.6,12.6,14L368.4,498.7z M347.9,494.3h14.4
		c0-2.4-0.5-4.5-1.5-5.9c-1.1-1.5-2.7-2.2-5-2.2c-2.3,0-4.1,0.8-5.4,2.3C348.9,490,348.1,491.9,347.9,494.3z"/>
	<path fill="#FFFFFF" d="M384.2,482v26.9l4.5,1.5v3.3h-15.6v-3.3l5.1-1.5v-22.2l-5.1-1.2v-3.3L384.2,482z M380.9,468
		c2.6,0,3.9,1.5,3.9,4.5c0,1.3-0.5,2.2-1.4,2.9c-0.9,0.7-1.8,1.1-2.8,1.1c-1.1,0-1.9-0.4-2.6-1.1c-0.7-0.8-1.1-1.7-1.1-3.1
		s0.4-2.3,1.1-3.1C378.9,468.4,379.9,468,380.9,468z"/>
	<path fill="#FFFFFF" d="M419,482v4.5l-17.5,22.7h12.2l0.9-4.7h4.2v9.3h-23.9v-4.5l17.5-22.7h-11.2l-0.9,4.5H396v-9H419L419,482z"/>
</g>
<g>
	<rect x="-128.1" y="491.5" fill="#FFFFFF" width="15.6" height="4.2"/>
	<rect x="-92.8" y="491.5" fill="#FFFFFF" width="41.4" height="4.2"/>
	<rect x="-161.3" y="491.5" fill="#FFFFFF" width="13.6" height="4.2"/>
	<rect x="-31.6" y="491.5" fill="#FFFFFF" width="66.9" height="4.2"/>
	<rect x="54.9" y="491.5" fill="#FFFFFF" width="115.9" height="4.2"/>
</g>
</svg>
