<?xml version="1.0" encoding="utf-8"?>
<!-- Generator: Adobe Illustrator 18.1.0, SVG Export Plug-In . SVG Version: 6.00 Build 0)  -->
<svg version="1.1" id="Ebene_1" xmlns="http://www.w3.org/2000/svg" xmlns:xlink="http://www.w3.org/1999/xlink" x="0px" y="0px"
	 viewBox="-170 0 615 200" enable-background="new -170 0 615 200" xml:space="preserve">
<rect x="303.1" y="33.5" fill="#0859FF" width="135.8" height="4.3"/>
<g>
	<path fill="#0859FF" d="M-148.8,82.4h6.5c4.2,0,7.5,0.9,9.9,2.7c2.5,1.8,3.7,4.5,3.7,8c0,5.2-2.5,8.6-7.4,10.2
		c5.9,1.7,8.8,5,8.8,9.9c0,8.5-5.4,12.8-16.1,12.8h-19.5v-5.4c1-0.4,2.6-0.9,4.6-1.5V89.7l-4.6-1.9v-5.1L-148.8,82.4z M-148.8,89.7
		v10.5h3.6c4.6,0,6.9-1.9,6.9-5.8c0-1.6-0.5-2.8-1.5-3.6c-1-0.8-2.2-1.2-3.8-1.2H-148.8z M-145.2,106.7h-3.6v12.1h5.1
		c2.1,0,3.8-0.5,4.9-1.5c1.1-1,1.7-2.3,1.7-4.1c0-2.2-0.7-3.9-2-4.9C-140.3,107.2-142.4,106.7-145.2,106.7z"/>
	<path fill="#0859FF" d="M-122.5,93.1l14-0.5v26.9l4.3,1.5v4.9h-18.4V121l4.9-1.5V99.3l-4.9-1.2V93.1z M-118.7,82.4
		c0-1.7,0.5-3,1.6-4.1c1.1-1,2.3-1.5,3.7-1.5c3.5,0,5.2,1.9,5.2,5.6c0,1.7-0.5,3.1-1.6,4.1c-1.1,1-2.3,1.5-3.6,1.5
		c-1.7,0-3-0.5-3.9-1.5C-118.3,85.6-118.7,84.2-118.7,82.4z"/>
	<path fill="#0859FF" d="M-101,78.5l14.3-0.5v41.4l5.9,1.5v4.9H-101V121l4.9-1.5V84.7l-4.9-1.2V78.5z"/>
	<path fill="#0859FF" d="M-42.8,125.5l-13,0.4l-0.6-3.3c-2.6,2.6-5.7,3.9-9.3,3.9c-4.2,0-7.4-1.4-9.5-4.3c-2.1-2.9-3.2-6.9-3.2-12.2
		c0-5.9,1.5-10.3,4.4-13.5c2.9-3.1,7.3-4.7,13.1-4.7c1.4,0,2.7,0.2,4,0.6v-7.9l-4.9-1.2v-4.9l14-0.5v41.3l4.9,1.2V125.5z
		 M-56.9,115.8V100c-1-0.6-2.6-0.9-4.8-0.9c-4.7,0-7.1,3.5-7.1,10.5c0,6.5,2,9.8,5.9,9.8c1.2,0,2.2-0.3,3.2-0.9
		c1-0.6,1.7-1.2,2.1-1.8L-56.9,115.8z"/>
	<path fill="#0859FF" d="M-36.2,115.5V99.1l-4.5-1.1v-4.9l13.7-0.5v21.2c0,1.7,0.3,2.9,0.8,3.7c0.5,0.8,1.4,1.2,2.7,1.2
		c1.2,0,2.3-0.3,3.6-0.8c1.2-0.6,2.2-1.1,2.8-1.7l0.9-0.9V99.1l-4.6-1.1v-4.9l13.7-0.5v26.9l4.7,1.2v4.8l-12.6,0.4l-0.6-4.3
		c-0.1,0.1-0.3,0.3-0.6,0.5c-0.3,0.2-0.8,0.6-1.6,1.2s-1.6,1.1-2.4,1.5c-0.8,0.4-1.8,0.8-3,1.2c-1.2,0.3-2.3,0.5-3.4,0.5
		c-3.1,0-5.5-1-7.1-2.9C-35.4,121.8-36.2,119-36.2,115.5z"/>
	<path fill="#0859FF" d="M1,93.1l12.8-0.5l0.4,4.3c0.5-0.4,1.1-0.8,1.8-1.3c0.7-0.5,2.1-1.2,4.1-2.1c2-0.9,3.8-1.3,5.5-1.3
		c3,0,5.2,1,6.8,2.9s2.4,4.6,2.4,8.1v16.4c0.5,0.2,1.3,0.4,2.3,0.8c1,0.4,1.7,0.6,2,0.7v4.9H22.4V121l3.3-1.5v-15
		c0-1.4-0.4-2.6-1.1-3.6s-1.8-1.4-3.1-1.4c-1.2,0-2.3,0.3-3.4,0.9c-1.1,0.6-1.9,1.2-2.4,1.8l-0.8,0.9v16.4l3.2,1.5v4.9H1V121
		l4.8-1.5V99.3L1,98V93.1z"/>
	<path fill="#0859FF" d="M43.1,132.8c0-1.6,0.5-3,1.6-4.2c1.1-1.2,2.1-2.1,3.2-2.5l1.7-0.7c-0.3,0-0.6-0.1-1.1-0.2
		c-0.4-0.1-1-0.5-1.6-1.2c-0.7-0.7-1-1.6-1-2.6c0-1.3,1.1-3.6,3.2-7c-3.2-2.1-4.8-5.3-4.8-9.6c0-4.1,1.4-7.2,4.1-9.4
		c2.7-2.2,6.3-3.3,10.7-3.3c2.8,0,5.2,0.5,7.3,1.5l10.6-0.2v4.9L72.1,99c0,0,0.1,0.3,0.3,0.8c0.2,0.5,0.4,1.1,0.5,1.8
		c0.1,0.7,0.2,1.4,0.2,2.2c0,4.3-1.3,7.5-4,9.6c-2.7,2.1-6.3,3.1-10.8,3.1c-0.5,0-1,0-1.5-0.1c-0.5,0-0.9-0.1-1.2-0.2
		c-0.3-0.1-0.5-0.1-0.5-0.1l-0.2,4.1H64c4,0,7,0.8,9.2,2.5c2.1,1.6,3.2,4,3.2,7.1c0,3.5-1.5,6.4-4.4,8.5c-2.9,2.1-7.2,3.2-13,3.2
		c-5.2,0-9.2-0.7-11.9-2C44.5,138.4,43.1,136,43.1,132.8z M61.6,127.2h-6.5c-0.2,0.1-0.5,0.2-0.8,0.4c-0.3,0.2-0.8,0.7-1.3,1.4
		c-0.6,0.7-0.8,1.4-0.8,2.2c0,1.5,0.6,2.5,1.8,3c1.2,0.5,3.2,0.7,5.9,0.7c2.8,0,4.8-0.3,6.1-1c1.2-0.7,1.9-1.7,1.9-3.2
		c0-1.3-0.5-2.2-1.5-2.8C65.3,127.5,63.8,127.2,61.6,127.2z M58.9,98.3c-3.5,0-5.3,2-5.3,5.9c0,4.1,1.6,6.2,4.9,6.2
		c1.9,0,3.2-0.5,4.1-1.5c0.8-1,1.2-2.6,1.2-4.7C63.9,100.3,62.2,98.3,58.9,98.3z"/>
	<path fill="#0859FF" d="M86.8,115.2l0.5,4.3c1.4,0.4,3.1,0.6,5.1,0.6c3.3,0,4.9-1.1,4.9-3.3c0-0.9-0.6-1.8-1.7-2.4
		c-1.1-0.7-2.5-1.3-4.1-1.8c-1.6-0.5-3.2-1.1-4.8-1.8c-1.6-0.7-3-1.7-4.1-3.1c-1.1-1.4-1.7-3.1-1.7-5.1c0-3.6,1.2-6.3,3.6-8
		C87,92.8,90,92,93.7,92c1.6,0,3.4,0.2,5.4,0.5c1.9,0.3,3.4,0.6,4.5,0.9l1.6,0.5c-0.1,2.1-0.2,5.2-0.2,9.3h-5.4l-0.9-4
		c-1.1-0.4-2.4-0.6-4.1-0.6c-1.3,0-2.3,0.3-3,0.8s-1.1,1.3-1.1,2.3c0,0.9,0.6,1.8,1.7,2.4c1.1,0.7,2.5,1.2,4.1,1.7
		c1.6,0.5,3.2,1.1,4.8,1.7c1.6,0.6,3,1.6,4.1,3c1.1,1.4,1.7,3,1.7,5c0,3.5-1.3,6.2-3.9,8.2c-2.6,2-6,2.9-10.4,2.9
		c-1.7,0-3.5-0.1-5.4-0.3c-1.9-0.2-3.4-0.4-4.4-0.6l-1.5-0.4v-10.1H86.8z"/>
	<path fill="#0859FF" d="M111.6,132.8c0-1.6,0.5-3,1.6-4.2c1.1-1.2,2.1-2.1,3.2-2.5l1.7-0.7c-0.3,0-0.6-0.1-1.1-0.2
		c-0.4-0.1-1-0.5-1.6-1.2c-0.7-0.7-1-1.6-1-2.6c0-1.3,1.1-3.6,3.2-7c-3.2-2.1-4.8-5.3-4.8-9.6c0-4.1,1.4-7.2,4.1-9.4
		c2.7-2.2,6.3-3.3,10.7-3.3c2.8,0,5.2,0.5,7.3,1.5l10.6-0.2v4.9l-5.1,0.9c0,0,0.1,0.3,0.3,0.8c0.2,0.5,0.4,1.1,0.5,1.8
		c0.1,0.7,0.2,1.4,0.2,2.2c0,4.3-1.3,7.5-4,9.6c-2.7,2.1-6.3,3.1-10.8,3.1c-0.5,0-1,0-1.5-0.1c-0.5,0-0.9-0.1-1.2-0.2
		c-0.3-0.1-0.5-0.1-0.5-0.1l-0.2,4.1h9.2c4,0,7,0.8,9.2,2.5c2.1,1.6,3.2,4,3.2,7.1c0,3.5-1.5,6.4-4.4,8.5c-2.9,2.1-7.2,3.2-13,3.2
		c-5.2,0-9.2-0.7-11.9-2C112.9,138.4,111.6,136,111.6,132.8z M130,127.2h-6.5c-0.2,0.1-0.5,0.2-0.8,0.4c-0.3,0.2-0.8,0.7-1.3,1.4
		s-0.8,1.4-0.8,2.2c0,1.5,0.6,2.5,1.8,3c1.2,0.5,3.2,0.7,5.9,0.7c2.8,0,4.8-0.3,6.1-1c1.2-0.7,1.9-1.7,1.9-3.2
		c0-1.3-0.5-2.2-1.5-2.8C133.7,127.5,132.2,127.2,130,127.2z M127.3,98.3c-3.5,0-5.3,2-5.3,5.9c0,4.1,1.6,6.2,4.9,6.2
		c1.9,0,3.2-0.5,4.1-1.5c0.8-1,1.2-2.6,1.2-4.7C132.3,100.3,130.6,98.3,127.3,98.3z"/>
	<path fill="#0859FF" d="M179.4,111.1l-20.5,0.2c0.2,2.6,0.9,4.5,2.3,5.9c1.3,1.4,3.1,2.1,5.2,2.1c1.5,0,3.2-0.2,4.9-0.7
		c1.7-0.5,3.1-1,4-1.5l1.5-0.7l2.7,4.9c-0.5,0.4-1.1,0.8-1.9,1.4c-0.8,0.6-2.5,1.4-4.9,2.3c-2.5,1-4.9,1.5-7.2,1.5
		c-5.2,0-9.2-1.5-12-4.4s-4.1-7-4.1-12.3c0-5.5,1.5-9.8,4.4-13.1c2.9-3.2,7-4.9,12.1-4.9c4.5,0,8,1.3,10.5,3.9
		c2.4,2.6,3.6,6.1,3.6,10.6L179.4,111.1z M165.1,99.2c-1.7,0-3.1,0.6-4.1,1.7c-1.1,1.2-1.7,2.7-1.9,4.6h11.1
		C170.1,101.3,168.4,99.2,165.1,99.2z"/>
	<path fill="#0859FF" d="M189.7,115.2l0.5,4.3c1.4,0.4,3.1,0.6,5.1,0.6c3.3,0,4.9-1.1,4.9-3.3c0-0.9-0.6-1.8-1.7-2.4
		c-1.1-0.7-2.5-1.3-4.1-1.8c-1.6-0.5-3.2-1.1-4.8-1.8c-1.6-0.7-3-1.7-4.1-3.1c-1.1-1.4-1.7-3.1-1.7-5.1c0-3.6,1.2-6.3,3.6-8
		c2.4-1.7,5.5-2.6,9.1-2.6c1.6,0,3.4,0.2,5.4,0.5c1.9,0.3,3.4,0.6,4.5,0.9l1.6,0.5c-0.1,2.1-0.2,5.2-0.2,9.3h-5.4l-0.9-4
		c-1.1-0.4-2.4-0.6-4.1-0.6c-1.3,0-2.3,0.3-3,0.8s-1.1,1.3-1.1,2.3c0,0.9,0.6,1.8,1.7,2.4c1.1,0.7,2.5,1.2,4.1,1.7
		c1.6,0.5,3.2,1.1,4.8,1.7c1.6,0.6,3,1.6,4.1,3c1.1,1.4,1.7,3,1.7,5c0,3.5-1.3,6.2-3.9,8.2c-2.6,2-6,2.9-10.4,2.9
		c-1.7,0-3.5-0.1-5.4-0.3c-1.9-0.2-3.4-0.4-4.4-0.6l-1.5-0.4v-10.1H189.7z"/>
	<path fill="#0859FF" d="M240,116.1l3.1,5.3c-4,3.5-8.4,5.3-13.3,5.3c-5.1,0-9-1.5-11.8-4.5c-2.8-3-4.2-7.1-4.2-12.4
		c0-5.5,1.5-9.9,4.5-13.1c3-3.2,7.2-4.8,12.5-4.8c1.6,0,3.3,0.2,5.1,0.5c1.8,0.4,3.2,0.7,4.3,1.1l1.5,0.6l-0.3,10.1h-5.6l-0.9-4.5
		c-1.2-0.3-2.6-0.5-4.3-0.5c-2.3,0-4.1,0.8-5.4,2.3c-1.3,1.5-1.9,3.9-1.9,7c0,3.5,0.6,6.2,1.9,8c1.3,1.9,3.2,2.8,5.8,2.8
		c0.8,0,1.6-0.1,2.3-0.2c0.7-0.1,1.5-0.4,2.2-0.6c0.7-0.3,1.2-0.5,1.6-0.7c0.4-0.2,0.9-0.5,1.6-0.9
		C239.4,116.4,239.8,116.2,240,116.1z"/>
	<path fill="#0859FF" d="M245.2,78.5l14-0.5v18.1c3.4-2.8,6.8-4.2,10.4-4.2c3.1,0,5.5,1,7.1,2.9c1.6,2,2.5,4.7,2.5,8.2v16.4l4.3,1.5
		v4.9h-16.7V121l3.2-1.5v-15c0-3.3-1.4-4.9-4.1-4.9c-1,0-2.1,0.3-3.2,0.8c-1.1,0.6-2,1.1-2.6,1.6l-0.9,0.8v16.6l3.3,1.5v4.9h-17.3
		V121l4.9-1.5V84.7l-4.9-1.2V78.5z"/>
	<path fill="#0859FF" d="M287.1,93.1l14-0.5v26.9l4.3,1.5v4.9h-18.4V121l4.9-1.5V99.3l-4.9-1.2V93.1z M290.9,82.4
		c0-1.7,0.5-3,1.6-4.1c1.1-1,2.3-1.5,3.7-1.5c3.5,0,5.2,1.9,5.2,5.6c0,1.7-0.5,3.1-1.6,4.1c-1.1,1-2.3,1.5-3.6,1.5
		c-1.7,0-3-0.5-3.9-1.5C291.3,85.6,290.9,84.2,290.9,82.4z"/>
	<path fill="#0859FF" d="M335.2,116.1l3.1,5.3c-4,3.5-8.4,5.3-13.3,5.3c-5.1,0-9-1.5-11.8-4.5c-2.8-3-4.2-7.1-4.2-12.4
		c0-5.5,1.5-9.9,4.5-13.1c3-3.2,7.2-4.8,12.5-4.8c1.6,0,3.3,0.2,5.1,0.5c1.8,0.4,3.2,0.7,4.3,1.1l1.5,0.6l-0.3,10.1h-5.6l-0.9-4.5
		c-1.2-0.3-2.6-0.5-4.3-0.5c-2.3,0-4.1,0.8-5.4,2.3c-1.3,1.5-1.9,3.9-1.9,7c0,3.5,0.6,6.2,1.9,8c1.3,1.9,3.2,2.8,5.8,2.8
		c0.8,0,1.6-0.1,2.3-0.2c0.7-0.1,1.5-0.4,2.2-0.6s1.2-0.5,1.6-0.7c0.4-0.2,0.9-0.5,1.6-0.9C334.7,116.4,335.1,116.2,335.2,116.1z"/>
	<path fill="#0859FF" d="M340.5,78.5l14-0.5v18.1c3.4-2.8,6.8-4.2,10.4-4.2c3.1,0,5.5,1,7.1,2.9c1.6,2,2.5,4.7,2.5,8.2v16.4l4.3,1.5
		v4.9h-16.7V121l3.2-1.5v-15c0-3.3-1.4-4.9-4.1-4.9c-1,0-2.1,0.3-3.2,0.8c-1.1,0.6-2,1.1-2.6,1.6l-0.9,0.8v16.6l3.3,1.5v4.9h-17.3
		V121l4.9-1.5V84.7l-4.9-1.2V78.5z"/>
	<path fill="#0859FF" d="M396,126.6c-3.4,0-5.8-1.1-7.1-3.3c-1.3-2.2-1.9-6.1-1.9-11.5v-11.6h-5.8v-5.9l5.8-0.8V85l9.1-1.7v10.2h8.7
		v6.7h-8.7v14c0,2.1,0.2,3.5,0.7,4.3c0.5,0.8,1.3,1.2,2.6,1.2c1.5,0,3.1-0.5,4.9-1.4l2.2,4.5C402.8,125.3,399.3,126.6,396,126.6z"/>
	<path fill="#0859FF" d="M439.6,111.1l-20.5,0.2c0.2,2.6,0.9,4.5,2.3,5.9c1.3,1.4,3.1,2.1,5.2,2.1c1.5,0,3.2-0.2,4.9-0.7
		c1.7-0.5,3.1-1,4-1.5l1.5-0.7l2.7,4.9c-0.5,0.4-1.1,0.8-1.9,1.4c-0.8,0.6-2.5,1.4-4.9,2.3c-2.5,1-4.9,1.5-7.2,1.5
		c-5.2,0-9.2-1.5-12-4.4s-4.1-7-4.1-12.3c0-5.5,1.5-9.8,4.4-13.1c2.9-3.2,7-4.9,12.1-4.9c4.5,0,8,1.3,10.5,3.9
		c2.4,2.6,3.6,6.1,3.6,10.6L439.6,111.1z M425.3,99.2c-1.7,0-3.1,0.6-4.1,1.7c-1.1,1.2-1.7,2.7-1.9,4.6h11.1
		C430.4,101.3,428.7,99.2,425.3,99.2z"/>
</g>
<g>
	<path fill="#0859FF" d="M-150.7,55.3l-10-36.4l-4.3-1.8V12l18.4-0.3v5.4l-4.5,1.9l5.3,22.4l8.7-29.2l8.4-0.5l8.3,29.6l5.9-22.3
		l-4.6-1.9V12l17.6-0.3v5.4l-4.5,1.9l-10.6,36.3h-8.8l-8.1-29.4c-1,4-2.6,9.7-4.9,17.1c-2.2,7.4-3.5,11.5-3.7,12.3H-150.7z"/>
	<path fill="#0859FF" d="M-99.1,22.4l14-0.5v26.9l4.3,1.5v4.9h-18.4v-4.9l4.9-1.5V28.6l-4.9-1.2V22.4z M-95.4,11.7
		c0-1.7,0.5-3,1.6-4.1c1.1-1,2.3-1.5,3.7-1.5c3.5,0,5.2,1.9,5.2,5.6c0,1.7-0.5,3.1-1.6,4.1c-1.1,1-2.3,1.5-3.6,1.5
		c-1.7,0-3-0.5-3.9-1.5C-94.9,14.9-95.4,13.5-95.4,11.7z"/>
	<path fill="#0859FF" d="M-70.9,44.5l0.5,4.3c1.4,0.4,3.1,0.6,5.1,0.6c3.3,0,4.9-1.1,4.9-3.3c0-0.9-0.6-1.8-1.7-2.4
		c-1.1-0.7-2.5-1.3-4.1-1.8c-1.6-0.5-3.2-1.1-4.8-1.8c-1.6-0.7-3-1.7-4.1-3.1c-1.1-1.4-1.7-3.1-1.7-5.1c0-3.6,1.2-6.3,3.6-8
		c2.4-1.7,5.5-2.6,9.1-2.6c1.6,0,3.4,0.2,5.4,0.5c1.9,0.3,3.4,0.6,4.5,0.9l1.6,0.5c-0.1,2.1-0.2,5.2-0.2,9.3h-5.4l-0.9-4
		c-1.1-0.4-2.4-0.6-4.1-0.6c-1.3,0-2.3,0.3-3,0.8s-1.1,1.3-1.1,2.3c0,0.9,0.6,1.8,1.7,2.4c1.1,0.7,2.5,1.2,4.1,1.7
		c1.6,0.5,3.2,1.1,4.8,1.7c1.6,0.6,3,1.6,4.1,3c1.1,1.4,1.7,3,1.7,5c0,3.5-1.3,6.2-3.9,8.2c-2.6,2-6,2.9-10.4,2.9
		c-1.7,0-3.5-0.1-5.4-0.3c-1.9-0.2-3.4-0.4-4.4-0.6l-1.5-0.4V44.5H-70.9z"/>
	<path fill="#0859FF" d="M-40.5,44.5l0.5,4.3c1.4,0.4,3.1,0.6,5.1,0.6c3.3,0,4.9-1.1,4.9-3.3c0-0.9-0.6-1.8-1.7-2.4
		c-1.1-0.7-2.5-1.3-4.1-1.8c-1.6-0.5-3.2-1.1-4.8-1.8c-1.6-0.7-3-1.7-4.1-3.1c-1.1-1.4-1.7-3.1-1.7-5.1c0-3.6,1.2-6.3,3.6-8
		c2.4-1.7,5.5-2.6,9.1-2.6c1.6,0,3.4,0.2,5.4,0.5c1.9,0.3,3.4,0.6,4.5,0.9l1.6,0.5c-0.1,2.1-0.2,5.2-0.2,9.3h-5.4l-0.9-4
		c-1.1-0.4-2.4-0.6-4.1-0.6c-1.3,0-2.3,0.3-3,0.8s-1.1,1.3-1.1,2.3c0,0.9,0.6,1.8,1.7,2.4c1.1,0.7,2.5,1.2,4.1,1.7
		c1.6,0.5,3.2,1.1,4.8,1.7c1.6,0.6,3,1.6,4.1,3c1.1,1.4,1.7,3,1.7,5c0,3.5-1.3,6.2-3.9,8.2c-2.6,2-6,2.9-10.4,2.9
		c-1.7,0-3.5-0.1-5.4-0.3c-1.9-0.2-3.4-0.4-4.4-0.6l-1.5-0.4V44.5H-40.5z"/>
	<path fill="#0859FF" d="M14,40.4l-20.5,0.2c0.2,2.6,0.9,4.5,2.3,5.9c1.3,1.4,3.1,2.1,5.2,2.1c1.5,0,3.2-0.2,4.9-0.7
		c1.7-0.5,3.1-1,4-1.5l1.5-0.7l2.7,4.9c-0.5,0.4-1.1,0.8-1.9,1.4c-0.8,0.6-2.5,1.4-4.9,2.3c-2.5,1-4.9,1.5-7.2,1.5
		c-5.2,0-9.2-1.5-12-4.4c-2.7-2.9-4.1-7-4.1-12.3c0-5.5,1.5-9.8,4.4-13.1c2.9-3.2,7-4.9,12.1-4.9c4.5,0,8,1.3,10.5,3.9
		c2.4,2.6,3.6,6.1,3.6,10.6L14,40.4z M-0.3,28.5c-1.7,0-3.1,0.6-4.1,1.7c-1.1,1.2-1.7,2.7-1.9,4.6H4.7C4.7,30.6,3,28.5-0.3,28.5z"/>
	<path fill="#0859FF" d="M18.2,22.4L31,21.9l0.4,4.3c0.5-0.4,1.1-0.8,1.8-1.3c0.7-0.5,2.1-1.2,4.1-2.1c2-0.9,3.8-1.3,5.5-1.3
		c3,0,5.2,1,6.8,2.9S52,29,52,32.4v16.4c0.5,0.2,1.3,0.4,2.3,0.8c1,0.4,1.7,0.6,2,0.7v4.9H39.7v-4.9l3.3-1.5v-15
		c0-1.4-0.4-2.6-1.1-3.6c-0.8-0.9-1.8-1.4-3.1-1.4c-1.2,0-2.3,0.3-3.4,0.9c-1.1,0.6-1.9,1.2-2.4,1.8l-0.8,0.9v16.4l3.2,1.5v4.9H18.2
		v-4.9l4.8-1.5V28.6l-4.8-1.2V22.4z"/>
	<path fill="#0859FF" d="M66,44.5l0.5,4.3c1.4,0.4,3.1,0.6,5.1,0.6c3.3,0,4.9-1.1,4.9-3.3c0-0.9-0.6-1.8-1.7-2.4
		c-1.1-0.7-2.5-1.3-4.1-1.8c-1.6-0.5-3.2-1.1-4.8-1.8c-1.6-0.7-3-1.7-4.1-3.1c-1.1-1.4-1.7-3.1-1.7-5.1c0-3.6,1.2-6.3,3.6-8
		c2.4-1.7,5.5-2.6,9.1-2.6c1.6,0,3.4,0.2,5.4,0.5c1.9,0.3,3.4,0.6,4.5,0.9l1.6,0.5c-0.1,2.1-0.2,5.2-0.2,9.3h-5.4l-0.9-4
		c-1.1-0.4-2.4-0.6-4.1-0.6c-1.3,0-2.3,0.3-3,0.8s-1.1,1.3-1.1,2.3c0,0.9,0.6,1.8,1.7,2.4c1.1,0.7,2.5,1.2,4.1,1.7
		c1.6,0.5,3.2,1.1,4.8,1.7c1.6,0.6,3,1.6,4.1,3c1.1,1.4,1.7,3,1.7,5c0,3.5-1.3,6.2-3.9,8.2c-2.6,2-6,2.9-10.4,2.9
		c-1.7,0-3.5-0.1-5.4-0.3c-1.9-0.2-3.4-0.4-4.4-0.6l-1.5-0.4V44.5H66z"/>
	<path fill="#0859FF" d="M94.4,28.6l-4.9-1.2v-4.9l13-0.5l0.6,3.5c0.3-0.3,0.8-0.7,1.3-1.1c0.6-0.5,1.6-1.1,3.2-1.8
		c1.6-0.8,3.1-1.1,4.6-1.1c4.2,0,7.4,1.5,9.6,4.4c2.2,2.9,3.3,6.9,3.3,12c0,5.9-1.4,10.4-4.2,13.5c-2.8,3.2-7,4.7-12.6,4.7
		c-1.4,0-3-0.2-4.6-0.6v7.9l5.9,1.4v4.9H89.5v-4.9l4.8-1.4V28.6z M103.5,32v16.5c1,0.6,2.6,0.9,4.8,0.9c2.6,0,4.4-0.9,5.5-2.6
		c1.1-1.8,1.6-4.4,1.6-8c0-6.8-2.1-10.2-6.2-10.2c-1.2,0-2.3,0.3-3.2,0.9c-0.9,0.6-1.6,1.2-2,1.7L103.5,32z"/>
	<path fill="#0859FF" d="M146,21.3c5,0,8.8,1.5,11.5,4.4c2.7,2.9,4.1,7,4.1,12.3c0,5.5-1.5,9.9-4.5,13.1c-3,3.2-7,4.8-12,4.8
		c-10.5,0-15.8-5.7-15.8-17c0-5.5,1.5-9.8,4.5-13C136.8,22.8,140.9,21.3,146,21.3z M145.7,28.4c-2.3,0-4.1,0.8-5.2,2.3
		c-1.1,1.5-1.6,4.2-1.6,7.9c0,3.5,0.5,6.1,1.5,7.8s2.7,2.4,4.9,2.4c2.3,0,3.9-0.8,5-2.4c1.1-1.6,1.6-4.3,1.6-8.1
		c0-3.3-0.5-5.8-1.5-7.5C149.5,29.2,147.9,28.4,145.7,28.4z"/>
	<path fill="#0859FF" d="M165.9,22.4l12.8-0.5l0.6,4.3c0.3-0.4,0.8-0.8,1.4-1.4c0.6-0.5,1.6-1.3,3.1-2.2s2.9-1.4,4.1-1.4
		c1,0,1.9,0.1,2.9,0.3c0.9,0.2,1.6,0.4,2.1,0.6l0.6,0.2L193,34.1h-5.4l-0.9-5.3c-1.1,0-2.2,0.3-3.3,0.9c-1.1,0.6-2,1.2-2.5,1.7
		l-0.9,0.9v16.5l5.9,1.5v4.9h-19.9v-4.9l4.9-1.5V28.6l-4.9-1.2V22.4z"/>
	<path fill="#0859FF" d="M209.8,55.9c-3.4,0-5.8-1.1-7.1-3.3c-1.3-2.2-1.9-6.1-1.9-11.5V29.5h-5.8v-5.9l5.8-0.8v-8.5l9.1-1.7v10.2
		h8.7v6.7H210v14c0,2.1,0.2,3.5,0.7,4.3c0.5,0.8,1.3,1.2,2.6,1.2c1.5,0,3.1-0.5,4.9-1.4l2.2,4.5C216.7,54.6,213.2,55.9,209.8,55.9z"
		/>
	<path fill="#0859FF" d="M256.4,54.9l-12.2,0.4l-1.1-4c-0.4,0.3-0.9,0.8-1.5,1.3c-0.6,0.5-1.8,1.2-3.6,2.1c-1.8,0.9-3.4,1.3-5,1.3
		c-3,0-5.4-0.8-7.1-2.5c-1.7-1.7-2.5-4.1-2.5-7.2c0-6.8,4.9-10.2,14.8-10.2h4.3v-3.4c0-3.1-1.6-4.6-4.8-4.6c-0.9,0-1.9,0.1-2.8,0.2
		c-0.9,0.2-1.6,0.3-2,0.5l-0.6,0.2l-0.9,4h-5.6l-0.4-9.2c5-1.6,9.5-2.5,13.4-2.5c4.7,0,8,0.9,10,2.8c1.9,1.8,2.9,5,2.9,9.5v15.3
		l4.6,1.1V54.9z M232.3,45.3c0,2.5,1.2,3.7,3.6,3.7c1,0,2-0.3,3.1-0.9c1.1-0.6,1.9-1.2,2.6-1.8l0.9-0.9v-4.1H239
		c-2.4,0-4.1,0.3-5.2,1C232.8,42.9,232.3,43.9,232.3,45.3z"/>
	<path fill="#0859FF" d="M259.3,7.9l14.3-0.5v41.4l5.9,1.5v4.9h-20.2v-4.9l4.9-1.5V14l-4.9-1.2V7.9z"/>
</g>
<g>
	<path fill="#0859FF" d="M205.1,183.2l1.2,6.5c0.7,0.4,1.8,0.8,3,1.1c1.3,0.3,2.5,0.5,3.8,0.5s2.4-0.2,3.6-0.5
		c1.2-0.3,2.2-0.8,3-1.3c0.9-0.6,1.6-1.3,2.1-2.1c0.5-0.8,0.8-1.7,0.8-2.8c0-1.2-0.3-2.2-1-3c-0.7-0.8-1.5-1.5-2.6-2.1
		c-1.1-0.6-2.2-1.1-3.6-1.6c-1.3-0.5-2.7-0.9-4-1.4c-1.4-0.6-2.8-1.2-4.2-1.9c-1.3-0.6-2.5-1.4-3.6-2.4c-1.1-0.9-1.9-2.1-2.5-3.4
		c-0.6-1.3-0.9-2.9-0.9-4.9c0-2.1,0.4-3.9,1.2-5.4c0.8-1.5,1.9-2.8,3.2-3.8c1.3-1,2.9-1.7,4.7-2.2c1.8-0.5,3.7-0.7,5.7-0.7
		c0.9,0,1.9,0.1,2.9,0.2c1,0.1,2,0.3,3,0.5c1,0.2,1.9,0.4,2.8,0.6c0.9,0.2,1.6,0.4,2.2,0.6l2,0.6l-0.3,10.5h-4l-2.1-6.6
		c-1.2-0.4-2.3-0.6-3.4-0.8c-1.1-0.2-2.3-0.2-3.5-0.2s-2.3,0.2-3.2,0.5c-1,0.3-1.8,0.7-2.5,1.3c-0.7,0.5-1.2,1.1-1.6,1.8
		c-0.4,0.7-0.6,1.3-0.6,2c0,1.7,0.6,3.1,1.7,4.1c1.1,1,2.5,1.8,4.1,2.5s3.4,1.4,5.4,2c1.9,0.6,3.7,1.4,5.3,2.3
		c1.6,0.9,3,2.1,4.1,3.6c1.1,1.5,1.6,3.4,1.6,5.8c0,2.1-0.4,4-1.2,5.7c-0.8,1.6-2,3-3.4,4.2c-1.4,1.1-3.2,2-5.1,2.6
		s-4.1,0.9-6.4,0.9c-0.9,0-1.9-0.1-2.9-0.2c-1.1-0.1-2.1-0.3-3.1-0.5c-1-0.2-1.9-0.4-2.8-0.6c-0.9-0.2-1.6-0.4-2.2-0.6l-1.7-0.6
		v-10.8H205.1z"/>
	<path fill="#0859FF" d="M261.6,173.3h-4l-0.9-5.3c-1.6-0.4-3.5-0.6-5.6-0.6c-3,0-5.3,1-6.9,2.8c-1.6,1.9-2.4,4.8-2.4,8.8
		c0,4,0.8,7.1,2.5,9.2c1.7,2.1,4,3.2,7.1,3.2c0.9,0,1.7-0.1,2.6-0.2c0.8-0.2,1.6-0.4,2.4-0.6c0.8-0.3,1.5-0.6,2.1-0.9
		c0.6-0.3,1.1-0.7,1.5-1l1.1-0.9l2.2,3.7l-0.7,0.6c-0.5,0.4-1.2,0.9-2,1.4c-0.9,0.5-1.8,1-2.9,1.4c-1.1,0.4-2.2,0.8-3.3,1.1
		c-1.2,0.3-2.3,0.5-3.4,0.5c-5,0-8.9-1.5-11.5-4.5c-2.6-3-4-7.1-4-12.3c0-2.6,0.4-4.9,1.1-7c0.8-2.1,1.8-3.9,3.2-5.4
		c1.4-1.5,3.1-2.7,5.1-3.5c2-0.8,4.2-1.3,6.6-1.3c0.8,0,1.7,0.1,2.5,0.2c0.9,0.1,1.7,0.3,2.5,0.4c0.8,0.2,1.6,0.4,2.3,0.6
		c0.7,0.2,1.3,0.4,1.8,0.6l1.4,0.6L261.6,173.3z"/>
	<path fill="#0859FF" d="M277.4,148.3v18.7c3.5-3,7-4.5,10.5-4.5c3.5,0,6.1,1,7.7,2.9c1.6,2,2.5,4.7,2.5,8.2v17.3l4.6,1.5v3.4h-14.8
		v-3.4l4-1.5v-16.8c0-2.2-0.4-3.9-1.2-4.9c-0.8-1.1-2.1-1.6-3.9-1.6c-0.9,0-1.7,0.1-2.5,0.3c-0.8,0.2-1.6,0.5-2.3,0.9
		c-0.7,0.4-1.4,0.8-2,1.2c-0.6,0.4-1.1,0.9-1.4,1.3l-1.1,1.2v18.2l4,1.5v3.4h-15.5v-3.4l5.3-1.5v-37.7l-5.3-1.2v-3.4L277.4,148.3z"
		/>
	<path fill="#0859FF" d="M318.8,163.1v3.7l-4.6,0.6l5.3,22.9l8.1-26.9l5.9-0.9l7.7,27.8l4.9-22.6l-4.3-0.9v-3.4l13.9-0.3v3.7
		l-3.6,0.6l-7.5,28.5h-7.1l-5.9-19.2l-1.5-5.9l-1.3,5.9l-5.9,19.2h-7.1l-7.7-28.1l-3.1-0.9v-3.4L318.8,163.1z"/>
	<path fill="#0859FF" d="M386.2,180.3l-21.3,0.1c0,3.4,0.8,6.1,2.4,8.1c1.6,2,3.8,3,6.5,3c0.9,0,1.8-0.1,2.7-0.2
		c0.9-0.2,1.8-0.4,2.6-0.6s1.5-0.5,2.2-0.8s1.2-0.6,1.7-0.9l1.2-0.8l2.2,3.2c-1.4,1.1-2.7,2-3.9,2.6c-1.2,0.6-2.6,1.2-4.1,1.7
		c-1.6,0.5-3.3,0.8-5.2,0.8c-4.9,0-8.6-1.5-11.1-4.4s-3.8-7-3.8-12.1c0-2.6,0.4-4.9,1.1-7.1s1.8-4,3.1-5.5c1.3-1.5,2.9-2.8,4.8-3.6
		c1.9-0.9,3.9-1.3,6.1-1.3c8.7,0,13,4.8,13,14.5L386.2,180.3z M365.1,175.8H380c0-2.5-0.5-4.6-1.6-6.1c-1.1-1.6-2.8-2.3-5.2-2.3
		c-2.4,0-4.2,0.8-5.6,2.4C366.1,171.3,365.3,173.3,365.1,175.8z"/>
	<path fill="#0859FF" d="M402.6,163.1v27.8l4.6,1.5v3.4h-16.1v-3.4l5.3-1.5v-22.9l-5.3-1.2v-3.4L402.6,163.1z M399.2,148.6
		c2.7,0,4,1.5,4,4.6c0,1.3-0.5,2.3-1.4,3c-0.9,0.7-1.9,1.1-2.9,1.1c-1.1,0-2-0.4-2.7-1.1c-0.7-0.8-1.1-1.8-1.1-3.2
		c0-1.4,0.4-2.4,1.1-3.2C397.1,149,398.1,148.6,399.2,148.6z"/>
	<path fill="#0859FF" d="M438.5,163.1v4.6l-18.1,23.5H433l0.9-4.9h4.3v9.6h-24.7v-4.6l18.1-23.5h-11.6l-0.9,4.6h-4.3v-9.3H438.5z"/>
</g>
<g>
	<rect x="-126.7" y="172.9" fill="#0859FF" width="16.1" height="4.3"/>
	<rect x="-90.2" y="172.9" fill="#0859FF" width="42.8" height="4.3"/>
	<rect x="-161" y="172.9" fill="#0859FF" width="14" height="4.3"/>
	<rect x="-27" y="172.9" fill="#0859FF" width="69.1" height="4.3"/>
	<rect x="62.4" y="172.9" fill="#0859FF" width="119.7" height="4.3"/>
</g>
</svg>
