<?xml version="1.0" encoding="utf-8"?>
<svg version="1.1" id="Ebene_1" xmlns="http://www.w3.org/2000/svg" xmlns:xlink="http://www.w3.org/1999/xlink" x="0px" y="0px"
	 viewBox="80 80.5 40 40" enable-background="new 80 80.5 40 40" xml:space="preserve">
<path fill-rule="evenodd" clip-rule="evenodd" fill="#FFFFFF" d="M117,113.6l-9.4-9.4c-0.4-0.4-1-0.6-1.5-0.4l-3.3-3.3
	c3-4.3,2.6-10.3-1.3-14.2c-4.3-4.3-11.4-4.3-15.7,0c-4.3,4.3-4.3,11.4,0,15.7c3.9,3.9,9.9,4.3,14.2,1.3l3.3,3.3
	c-0.1,0.5,0,1.1,0.4,1.5l9.4,9.4c0.6,0.6,1.7,0.6,2.3,0l1.7-1.7C117.7,115.2,117.7,114.2,117,113.6z M99,99.4
	c-2.9,2.9-7.7,2.9-10.7,0c-2.9-2.9-2.9-7.7,0-10.7c2.9-2.9,7.7-2.9,10.7,0C101.9,91.7,101.9,96.5,99,99.4z"/>
</svg>
